# xmcd CD database file
#
# Track frame offsets:
#	150
#	12397
#	45137
#	49815
#	70385
#	84679
#	101844
#	112405
#	129534
#	148047
#	161837
#	178778
#	196441
#	215548
#	229814
#	244622
#	250112
#	255405
#	283600
#	303000
#
# Disc length: 4156 seconds
#
# Revision: 0
# Processed by: cddbd v1.5.2PL0 Copyright (c) Steve Scherf et al.
# Submitted via: CDex 1.51
#
DISCID=24103a14
DTITLE=Essentially Ellington - 2006-07 Reference Recordings
DYEAR=2006
DGENRE=Jazz
TTITLE0=C Jam Blues DEO
TTITLE1=C Jam BLues JLCO
TTITLE2=C Jam Blues RS Letter A 3x
TTITLE3=C Jam Blues RS Letter B and 12 bars, 6x
TTITLE4=Flaming Sword DEO
TTITLE5=Flaming Sword JLCO
TTITLE6=Flaming Sword RS I-P 2x
TTITLE7=Sophisticated Lady DEO
TTITLE8=Sophisticated Lady JLCO
TTITLE9=Sophisticated Lady D-J 3x
TTITLE10=Jumpin' Punkins DEO
TTITLE11=Jumpin' Punkins JLCO
TTITLE12=Jumpin' Punkins RS entire chart
TTITLE13=Old Man Blues DEO
TTITLE14=Old Man Blues JLCO
TTITLE15=Old Man Blues RS A-D, 2x
TTITLE16=Old Man Blues RS H-K, 2x
TTITLE17=Second Line, Eureka Brass Band
TTITLE18=Second Line, JLCO
TTITLE19=Second Line RS, 30-114
EXTD=YEAR: 2006
EXTT0=
EXTT1=
EXTT2=
EXTT3=
EXTT4=
EXTT5=
EXTT6=
EXTT7=
EXTT8=
EXTT9=
EXTT10=
EXTT11=
EXTT12=
EXTT13=
EXTT14=
EXTT15=
EXTT16=
EXTT17=
EXTT18=
EXTT19=
PLAYORDER=
